<?xml version="1.0" encoding="utf-8"?>
<svg xmlns="http://www.w3.org/2000/svg" viewBox="0 0 120 120">
  <defs>
    <linearGradient id="g1" x1="0%" x2="100%" y1="0%" y2="0%">
      <stop offset="0%" stop-color="#B1122C" />
      <stop offset="100%" stop-color="#FF3A4A" />
    </linearGradient>
  </defs>
  <g transform="translate(0,0)">
    <!-- decorative ring -->
    <circle cx="60" cy="60" r="42" fill="none" stroke="currentColor" stroke-width="3" opacity="0.1" />
    <g stroke="currentColor" stroke-width="4" fill="none" stroke-linecap="round" opacity="0.8">
      <g transform="rotate(0 60 60)"><path d="M60 18 A42 42 0 0 1 99 32" /></g>
      <g transform="rotate(40 60 60)"><path d="M60 18 A42 42 0 0 1 99 32" /></g>
      <g transform="rotate(80 60 60)"><path d="M60 18 A42 42 0 0 1 99 32" /></g>
      <g transform="rotate(120 60 60)"><path d="M60 18 A42 42 0 0 1 99 32" /></g>
      <g transform="rotate(160 60 60)"><path d="M60 18 A42 42 0 0 1 99 32" /></g>
      <g transform="rotate(200 60 60)"><path d="M60 18 A42 42 0 0 1 99 32" /></g>
      <g transform="rotate(240 60 60)"><path d="M60 18 A42 42 0 0 1 99 32" /></g>
      <g transform="rotate(280 60 60)"><path d="M60 18 A42 42 0 0 1 99 32" /></g>
      <g transform="rotate(320 60 60)"><path d="M60 18 A42 42 0 0 1 99 32" /></g>
    </g>
    <!-- center rocket-ish mark -->
    <path fill="url(#g1)" d="M60 30 L72 75 L60 88 L48 75 Z" />
  </g>
</svg>
